<svg xmlns="http://www.w3.org/2000/svg" width="56" height="56" fill="none"><g clip-path="url(#a)"><path fill="#FED00E" d="m48.327 23.438-1.862-4.72-3.487-1.374v10.475l1.509 3.823 3.823 1.508-3.823 1.508-1.509 3.823v7.991h6.438V20.674l-1.09 2.764z"/><path fill="#FED00E" d="m42.977 16.372 3.487-1.375 1.86-4.719 1.09 2.763V2.716H6.019v43.756h6.438V9.166h30.52v7.206z"/><path stroke="#0F0D39" stroke-linecap="round" stroke-linejoin="round" stroke-miterlimit="10" stroke-width="2.188" d="M27.718 9.166H12.457v18.653h15.26V9.166z"/><path stroke="#0F0D39" stroke-linecap="round" stroke-linejoin="round" stroke-miterlimit="10" stroke-width="2.188" d="M42.977 15.79V9.166h-15.26v18.653h15.26V17.603m0 10.217h-15.26v18.652h15.26v-7.99m-30.52 7.99h15.26V27.82h-15.26v18.653z"/><mask id="b" width="56" height="56" x="0" y="0" maskUnits="userSpaceOnUse" style="mask-type:luminance"><path fill="#fff" d="M0 0h56v56H0V0z"/></mask><g stroke="#0F0D39" stroke-linecap="round" stroke-linejoin="round" stroke-miterlimit="10" stroke-width="2.188" mask="url(#b)"><path d="M54.718 52.19H1.094v-5.718h53.624v5.719zm-4.532-37.193 4.719 1.861-4.72 1.861-1.86 4.719-1.862-4.719-4.719-1.861 4.72-1.861 1.86-4.719 1.862 4.719z"/></g><path stroke="#0F0D39" stroke-linecap="round" stroke-linejoin="round" stroke-miterlimit="10" stroke-width="2.188" d="m44.486 31.642 3.824 1.508-3.824 1.508-1.508 3.823-1.508-3.823-3.823-1.508 3.823-1.508 1.508-3.823 1.508 3.823z"/></g><defs><clipPath id="a"><path fill="#fff" d="M0 0h56v56H0z"/></clipPath></defs></svg>