<svg xmlns="http://www.w3.org/2000/svg" width="56" height="56" fill="none"><g clip-path="url(#a)"><path stroke="#0F0D39" stroke-linecap="round" stroke-linejoin="round" stroke-miterlimit="10" stroke-width="2.188" d="m36.94 29.232 3.568 1.407-3.567 1.406-1.407 3.567-1.407-3.567-3.567-1.407 3.567-1.406 1.407-3.567 1.407 3.567z"/><mask id="b" width="56" height="56" x="0" y="0" maskUnits="userSpaceOnUse" style="mask-type:luminance"><path fill="#fff" d="M0 0h56v56H0V0z"/></mask><g mask="url(#b)"><path fill="#FED00E" d="M54.073 54.3c0-2.011-1.22-4.017-3.032-5.082v-.06a4.498 4.498 0 0 0-6.633-3.959c-1.557-1.866-4.005-3.003-6.531-3.003-4.248 0-7.774 3.206-8.024 7.22a5.615 5.615 0 0 0-.685.214V56h24.63a5.384 5.384 0 0 0 .275-1.7z"/><path stroke="#0F0D39" stroke-linecap="round" stroke-linejoin="round" stroke-miterlimit="10" stroke-width="2.188" d="M18.549 29.513H13.64V1.093h4.908v28.42zm10.618 9.537H3.02v-2.84a2.628 2.628 0 0 1 2.628-2.628h20.89a2.628 2.628 0 0 1 2.629 2.628v2.838zm0 15.856H3.02V39.05h26.147v15.857z"/><path stroke="#0F0D39" stroke-linecap="round" stroke-linejoin="round" stroke-miterlimit="10" stroke-width="2.188" d="M22.42 33.583H9.77v-4.07h12.65v4.07zM7.717 47.997v6.567m5.583-6.567v6.567m5.587-6.567v6.567m5.583-6.567v6.567"/></g></g><defs><clipPath id="a"><path fill="#fff" d="M0 0h56v56H0z"/></clipPath></defs></svg>