<svg xmlns="http://www.w3.org/2000/svg" width="56" height="56" fill="none"><path stroke="#0F0D39" stroke-linecap="round" stroke-linejoin="round" stroke-miterlimit="10" stroke-width="2.188" d="M34.608 11.657H21.39V5.959h13.217v5.698z"/><mask id="a" width="56" height="56" x="0" y="0" maskUnits="userSpaceOnUse" style="mask-type:luminance"><path fill="#fff" d="M0 0h56v56H0V0z"/></mask><g mask="url(#a)"><path stroke="#0F0D39" stroke-linecap="round" stroke-linejoin="round" stroke-miterlimit="10" stroke-width="2.188" d="M40.943 54.906H15.055a4.934 4.934 0 0 1-4.934-4.934V24.537c0-7.113 5.767-12.88 12.88-12.88h9.996c7.114 0 12.88 5.767 12.88 12.88v25.435a4.934 4.934 0 0 1-4.934 4.934z"/><path stroke="#0F0D39" stroke-linecap="round" stroke-linejoin="round" stroke-miterlimit="10" stroke-width="2.188" d="M40.134 32.378h-7.77v-14.02a7.77 7.77 0 0 1 7.77 7.77v6.25zM32.962 5.96H23.04V1.093h9.923v4.865z"/><path fill="#FED00E" d="M27.41 38.484v-5.68H16.577v16.43h23.558v-10.75H27.41z"/></g></svg>