<svg xmlns="http://www.w3.org/2000/svg" width="56" height="56" fill="none"><g clip-path="url(#a)"><path fill="#FED00E" d="M12.756 23.691 27.844 9.104l15.088 14.587H12.756z"/><mask id="b" width="56" height="57" x="0" y="0" maskUnits="userSpaceOnUse" style="mask-type:luminance"><path fill="#fff" d="M0 0h56v56H0V0z"/></mask><g stroke="#0F0D39" stroke-linecap="round" stroke-linejoin="round" stroke-miterlimit="10" stroke-width="2.07" mask="url(#b)"><path d="m47.863 28.366 4.27 1.684-4.27 1.684-1.684 4.27-1.684-4.27-4.27-1.684 4.27-1.684 1.684-4.27 1.684 4.27zm-1.685 7.782v18.759H9.514V23.692M27.848 9.104l15.088 14.587h8.886L27.848 1.094 3.873 23.69h8.886L27.848 9.104z"/></g><path stroke="#0F0D39" stroke-linecap="round" stroke-linejoin="round" stroke-miterlimit="10" stroke-width="2.07" d="M40.145 12.56V6.382h5.704v11.595"/><mask id="c" width="56" height="57" x="0" y="0" maskUnits="userSpaceOnUse" style="mask-type:luminance"><path fill="#fff" d="M0 0h56v56H0V0z"/></mask><g mask="url(#c)"><path stroke="#0F0D39" stroke-linecap="round" stroke-linejoin="round" stroke-miterlimit="10" stroke-width="2.07" d="M23.939 54.907h-8.828V36.52h8.828v18.386z"/></g><path stroke="#0F0D39" stroke-linecap="round" stroke-linejoin="round" stroke-miterlimit="10" stroke-width="2.07" d="M40.58 46.35H29.138v-9.83h11.44v9.83z"/></g><defs><clipPath id="a"><path fill="#fff" d="M0 0h56v56H0z"/></clipPath></defs></svg>